<svg xmlns="http://www.w3.org/2000/svg" version="1.1" xmlns:xlink="http://www.w3.org/1999/xlink" xmlns:svgjs="http://svgjs.dev/svgjs" width="1000" height="191" viewBox="0 0 1000 191"><g transform="matrix(1,0,0,1,-0.6060606060606233,-0.4201345973521313)"><svg viewBox="0 0 396 76" data-background-color="#ffffff" preserveAspectRatio="xMidYMid meet" height="191" width="1000" xmlns="http://www.w3.org/2000/svg" xmlns:xlink="http://www.w3.org/1999/xlink"><g id="tight-bounds" transform="matrix(1,0,0,1,0.2400000000000091,0.1671739759097477)"><svg viewBox="0 0 395.52 75.6653665154911" height="75.6653665154911" width="395.52"><g><svg viewBox="0 0 521.298865367387 99.72762366538477" height="75.6653665154911" width="395.52"><g transform="matrix(1,0,0,1,125.77886536738694,22.276041684517466)"><svg viewBox="0 0 395.52 55.17554029634984" height="55.17554029634984" width="395.52"><g id="textblocktransform"><svg viewBox="0 0 395.52 55.17554029634984" height="55.17554029634984" width="395.52" id="textblock"><g><svg viewBox="0 0 395.52 55.17554029634984" height="55.17554029634984" width="395.52"><g transform="matrix(1,0,0,1,0,0)"><svg width="395.52" viewBox="1.7599999904632568 -36.22999954223633 270.19000244140625 37.689998626708984" height="55.17554029634984" data-palette-color="#ae36f5"><path d="M34.86-5.32L34.86-5.32Q34.72-4.05 34.45-2.83 34.18-1.61 33.79-0.66 33.4 0.29 32.79 0.85 32.18 1.42 31.4 1.42L31.4 1.42Q30.62 1.42 29.98 0.22 29.35-0.98 28.78-2.95 28.22-4.93 27.76-7.42 27.29-9.91 26.93-12.48 26.56-15.04 26.32-17.48 26.07-19.92 25.93-21.73L25.93-21.73Q25.63-19.87 25.24-17.58 24.85-15.28 24.32-12.92 23.78-10.55 23.14-8.28 22.51-6.01 21.78-4.22 21.04-2.44 20.21-1.37 19.38-0.29 18.46-0.29L18.46-0.29Q17.63-0.29 16.8-1.42 15.97-2.54 15.19-4.37 14.4-6.2 13.72-8.45 13.04-10.69 12.45-12.96 11.87-15.23 11.43-17.26 10.99-19.29 10.74-20.65L10.74-20.65Q10.74-19.63 10.72-18.38 10.69-17.14 10.69-16.6L10.69-16.6Q10.69-16.36 10.67-14.99 10.64-13.62 10.5-11.72 10.35-9.81 10.06-7.64 9.77-5.47 9.2-3.61 8.64-1.76 7.81-0.49 6.98 0.78 5.76 0.88L5.76 0.88Q4.79 0.44 4.13-0.61 3.47-1.66 3.03-3.08 2.59-4.49 2.34-6.1 2.1-7.71 1.95-9.25 1.81-10.79 1.78-12.11 1.76-13.43 1.76-14.26L1.76-14.26Q1.76-15.72 1.93-17.94 2.1-20.17 2.49-22.61 2.88-25.05 3.52-27.49 4.15-29.93 5.05-31.86 5.96-33.79 7.15-35.01 8.35-36.23 9.91-36.23L9.91-36.23Q10.64-36.23 11.47-35.4 12.3-34.57 13.13-33.23 13.96-31.88 14.75-30.22 15.53-28.56 16.24-26.88 16.94-25.2 17.48-23.66 18.02-22.12 18.36-21.04L18.36-21.04Q18.75-22.22 19.34-23.78 19.92-25.34 20.63-27.03 21.34-28.71 22.19-30.35 23.05-31.98 23.97-33.28 24.9-34.57 25.85-35.38 26.81-36.18 27.78-36.18L27.78-36.18Q29.49-36.18 30.71-34.91 31.93-33.64 32.76-31.62 33.59-29.59 34.08-27.08 34.57-24.56 34.84-22.09 35.11-19.63 35.18-17.48 35.25-15.33 35.25-14.01L35.25-14.01Q35.25-13.48 35.25-12.55 35.25-11.62 35.23-10.45 35.21-9.28 35.11-7.96 35.01-6.64 34.86-5.32ZM48 1.42L48 1.42Q45.51 1.42 43.65 0.1 41.79-1.22 40.52-3.27 39.26-5.32 38.62-7.84 37.99-10.35 37.99-12.79L37.99-12.79Q37.99-15.38 38.62-18.14 39.26-20.9 40.57-23.17 41.89-25.44 43.94-26.88 45.99-28.32 48.83-28.32L48.83-28.32Q51.56-28.32 53.49-26.83 55.42-25.34 56.59-23.12 57.76-20.9 58.25-18.26 58.74-15.63 58.59-13.28L58.59-13.28Q58.44-10.69 57.79-8.06 57.13-5.42 55.86-3.32 54.59-1.22 52.63 0.1 50.68 1.42 48 1.42ZM48.48-20.65L48.48-20.65Q47.75-20.65 47.19-19.87 46.63-19.09 46.26-17.97 45.9-16.85 45.7-15.6 45.51-14.36 45.51-13.43L45.51-13.43Q45.51-12.26 45.73-10.89 45.94-9.52 46.34-8.37 46.73-7.23 47.29-6.47 47.85-5.71 48.58-5.71L48.58-5.71Q49.36-5.71 49.92-6.45 50.49-7.18 50.83-8.3 51.17-9.42 51.32-10.77 51.46-12.11 51.46-13.28L51.46-13.28Q51.46-14.36 51.27-15.65 51.07-16.94 50.71-18.07 50.34-19.19 49.78-19.92 49.22-20.65 48.48-20.65ZM82.12-17.48L82.12-17.48Q80.85-14.11 79.34-10.45 77.83-6.79 76.07-3.61L76.07-3.61Q75-1.66 73.68-0.37 72.36 0.93 70.65 0.93L70.65 0.93Q69.28 0.93 67.99-0.46 66.69-1.86 65.6-3.78 64.5-5.71 63.69-7.69 62.89-9.67 62.5-10.84L62.5-10.84Q62.1-12.16 61.62-13.67 61.13-15.19 60.74-16.75L60.74-16.75Q60.35-18.31 60.1-19.85 59.86-21.39 59.86-22.75L59.86-22.75Q59.86-24.66 60.54-25.88 61.23-27.1 63.23-27.1L63.23-27.1Q64.01-27.1 64.64-26.64 65.28-26.17 65.82-25.34 66.35-24.51 66.84-23.41 67.33-22.31 67.77-21L67.77-21Q68.21-19.73 68.6-18.36 68.99-16.99 69.38-15.72L69.38-15.72Q69.77-14.45 70.19-13.26 70.6-12.06 71.28-10.89L71.28-10.89Q71.63-11.77 72.07-12.89 72.5-14.01 73.02-15.28 73.53-16.55 74.12-17.9 74.7-19.24 75.39-20.51L75.39-20.51Q76.7-23.14 78.19-25 79.68-26.86 81.15-26.86L81.15-26.86Q82.51-26.86 83.1-26.03 83.69-25.2 83.69-23.88L83.69-23.88Q83.69-22.56 83.25-20.9 82.81-19.24 82.12-17.48ZM93.45-34.08L93.45-34.08Q93.45-33.4 93.08-32.86 92.72-32.32 92.13-31.91 91.55-31.49 90.86-31.27 90.18-31.05 89.59-31.05L89.59-31.05Q88.62-31.05 87.88-31.54 87.15-32.03 87.15-33.06L87.15-33.06Q87.15-33.79 87.52-34.35 87.88-34.91 88.42-35.28 88.96-35.64 89.64-35.84 90.32-36.04 90.96-36.04L90.96-36.04Q91.89-36.04 92.67-35.6 93.45-35.16 93.45-34.08ZM93.84-17.48L93.84-17.48Q93.84-16.8 93.84-16.04 93.84-15.28 93.79-14.6L93.79-14.6Q93.74-13.77 93.74-12.38 93.74-10.99 93.64-9.38 93.55-7.76 93.33-6.1 93.11-4.44 92.62-3.08 92.13-1.71 91.33-0.85 90.52 0 89.3 0.05L89.3 0.05Q88.37 0.1 87.74-0.68 87.1-1.46 86.69-2.71 86.27-3.96 86.08-5.49 85.88-7.03 85.78-8.47 85.69-9.91 85.69-11.13 85.69-12.35 85.69-12.94L85.69-12.94Q85.69-13.72 85.69-15.16 85.69-16.6 85.78-18.26 85.88-19.92 86.15-21.63 86.42-23.34 86.93-24.76 87.44-26.17 88.27-27.05 89.1-27.93 90.37-27.93L90.37-27.93Q91.69-27.93 92.38-26.61 93.06-25.29 93.4-23.54 93.74-21.78 93.79-20.04 93.84-18.31 93.84-17.48ZM117.76-8.69L117.76-8.69Q117.76-7.03 116.71-5.44 115.66-3.86 114.08-2.61 112.49-1.37 110.68-0.61 108.88 0.15 107.36 0.15L107.36 0.15Q104.78 0.15 102.75-1.15 100.72-2.44 99.36-4.44 97.99-6.45 97.28-8.86 96.57-11.28 96.57-13.57L96.57-13.57Q96.57-16.02 97.26-18.8 97.94-21.58 99.33-23.93 100.72-26.27 102.85-27.83 104.97-29.39 107.9-29.39L107.9-29.39Q109.56-29.39 111.07-28.83 112.59-28.27 113.71-27.25 114.83-26.22 115.52-24.8 116.2-23.39 116.2-21.63L116.2-21.63Q116.2-19.34 115.22-17.33 114.25-15.33 112.64-13.87 111.03-12.4 108.93-11.5 106.83-10.6 104.63-10.5L104.63-10.5Q104.82-9.08 105.78-8.45 106.73-7.81 108.05-7.81L108.05-7.81Q109.02-7.81 109.95-8.3 110.88-8.79 111.76-9.4 112.64-10.01 113.49-10.5 114.35-10.99 115.22-10.99L115.22-10.99Q116.2-10.99 116.98-10.35 117.76-9.72 117.76-8.69ZM109.85-20.65L109.85-20.65Q109.85-21.29 109.51-21.97 109.17-22.66 108.44-22.66L108.44-22.66Q107.36-22.66 106.63-22.09 105.9-21.53 105.41-20.68 104.92-19.82 104.65-18.85 104.38-17.87 104.34-17.04L104.34-17.04Q105.02-17.19 105.97-17.43 106.92-17.68 107.78-18.09 108.63-18.51 109.24-19.14 109.85-19.78 109.85-20.65ZM164.88-5.32L164.88-5.32Q164.73-4.05 164.46-2.83 164.19-1.61 163.8-0.66 163.41 0.29 162.8 0.85 162.19 1.42 161.41 1.42L161.41 1.42Q160.63 1.42 159.99 0.22 159.36-0.98 158.8-2.95 158.24-4.93 157.77-7.42 157.31-9.91 156.94-12.48 156.58-15.04 156.33-17.48 156.09-19.92 155.94-21.73L155.94-21.73Q155.65-19.87 155.26-17.58 154.87-15.28 154.33-12.92 153.79-10.55 153.16-8.28 152.52-6.01 151.79-4.22 151.06-2.44 150.23-1.37 149.4-0.29 148.47-0.29L148.47-0.29Q147.64-0.29 146.81-1.42 145.98-2.54 145.2-4.37 144.42-6.2 143.74-8.45 143.05-10.69 142.47-12.96 141.88-15.23 141.44-17.26 141-19.29 140.76-20.65L140.76-20.65Q140.76-19.63 140.73-18.38 140.71-17.14 140.71-16.6L140.71-16.6Q140.71-16.36 140.68-14.99 140.66-13.62 140.51-11.72 140.37-9.81 140.07-7.64 139.78-5.47 139.22-3.61 138.66-1.76 137.83-0.49 137 0.78 135.78 0.88L135.78 0.88Q134.8 0.44 134.14-0.61 133.48-1.66 133.04-3.08 132.6-4.49 132.36-6.1 132.11-7.71 131.97-9.25 131.82-10.79 131.8-12.11 131.77-13.43 131.77-14.26L131.77-14.26Q131.77-15.72 131.94-17.94 132.11-20.17 132.5-22.61 132.9-25.05 133.53-27.49 134.16-29.93 135.07-31.86 135.97-33.79 137.17-35.01 138.36-36.23 139.93-36.23L139.93-36.23Q140.66-36.23 141.49-35.4 142.32-34.57 143.15-33.23 143.98-31.88 144.76-30.22 145.54-28.56 146.25-26.88 146.96-25.2 147.49-23.66 148.03-22.12 148.37-21.04L148.37-21.04Q148.76-22.22 149.35-23.78 149.94-25.34 150.64-27.03 151.35-28.71 152.21-30.35 153.06-31.98 153.99-33.28 154.92-34.57 155.87-35.38 156.82-36.18 157.8-36.18L157.8-36.18Q159.51-36.18 160.73-34.91 161.95-33.64 162.78-31.62 163.61-29.59 164.1-27.08 164.58-24.56 164.85-22.09 165.12-19.63 165.19-17.48 165.27-15.33 165.27-14.01L165.27-14.01Q165.27-13.48 165.27-12.55 165.27-11.62 165.24-10.45 165.22-9.28 165.12-7.96 165.02-6.64 164.88-5.32ZM189.48-6.88L189.48-6.88Q189.48-6.01 189.41-4.59 189.34-3.17 189-1.83 188.65-0.49 187.92 0.49 187.19 1.46 185.87 1.46L185.87 1.46Q184.06 1.46 183.09 0.29 182.11-0.88 182.16-2.64L182.16-2.64Q180.6-1.27 178.62-0.49 176.64 0.29 174.59 0.29L174.59 0.29Q173.18 0.29 171.91-0.39 170.64-1.07 169.66-2.15 168.68-3.22 168.1-4.57 167.51-5.91 167.51-7.23L167.51-7.23Q167.51-9.57 168.95-11.33 170.39-13.09 172.49-14.33 174.59-15.58 176.96-16.31 179.33-17.04 181.18-17.29L181.18-17.29Q181.18-17.53 181.21-17.72 181.23-17.92 181.23-18.16L181.23-18.16Q181.23-19.68 180.4-20.61 179.57-21.53 178.06-21.53L178.06-21.53Q176.84-21.53 175.96-21.12 175.08-20.7 174.3-20.19 173.52-19.68 172.74-19.26 171.96-18.85 170.98-18.85L170.98-18.85Q169.9-18.85 169.15-19.53 168.39-20.21 168.39-21.29L168.39-21.29Q168.39-22.9 169.34-24.22 170.3-25.54 171.74-26.44 173.18-27.34 174.86-27.86 176.55-28.37 177.96-28.37L177.96-28.37Q179.28-28.37 180.6-28.05 181.92-27.73 183.09-27.08 184.26-26.42 185.21-25.46 186.16-24.51 186.75-23.24L186.75-23.24Q187.63-21.44 188.17-19.41 188.7-17.38 189-15.26 189.29-13.13 189.39-11.01 189.48-8.89 189.48-6.88ZM181.67-8.45L181.67-8.45 181.53-11.77Q181.43-11.77 181.33-11.79 181.23-11.82 181.13-11.82L181.13-11.82Q180.5-11.82 179.55-11.5 178.6-11.18 177.72-10.62 176.84-10.06 176.23-9.38 175.62-8.69 175.62-7.96L175.62-7.96Q175.62-7.28 176.11-7.03 176.59-6.79 177.23-6.79L177.23-6.79Q178.3-6.79 179.52-7.35 180.74-7.91 181.67-8.45ZM206.28 1.37L206.28 1.37Q205.45 1.37 204.96 0.61 204.47-0.15 204.23-1.12 203.98-2.1 203.91-3.1 203.84-4.1 203.84-4.64L203.84-4.64Q203.84-6.1 204.01-7.57 204.18-9.03 204.4-10.5 204.62-11.96 204.79-13.43 204.96-14.89 204.96-16.36L204.96-16.36Q204.96-16.94 204.91-17.63 204.86-18.31 204.69-18.92 204.52-19.53 204.13-19.92 203.74-20.31 203.11-20.31L203.11-20.31Q202.67-20.31 202.13-19.6 201.59-18.9 201.13-17.99 200.66-17.09 200.35-16.19 200.03-15.28 200.03-14.84L200.03-14.84Q200.03-13.77 200.05-12.67 200.08-11.57 200.08-10.45L200.08-10.45 200.08-7.62Q200.03-6.74 199.93-5.81 199.83-4.88 199.64-4L199.64-4Q199.49-3.13 199.2-2.32 198.91-1.51 198.44-0.9 197.98-0.29 197.34 0.1 196.71 0.49 195.83 0.49L195.83 0.49Q194.85 0.49 194.22-0.15 193.58-0.78 193.19-1.78 192.8-2.78 192.63-4.03 192.46-5.27 192.39-6.47 192.31-7.67 192.34-8.67 192.36-9.67 192.36-10.25L192.36-10.25 192.36-12.55Q192.36-14.4 192.29-16.21 192.22-18.02 192.22-19.82L192.22-19.82Q192.22-20.8 192.24-22.31 192.27-23.83 192.61-25.27 192.95-26.71 193.73-27.73 194.51-28.76 196.02-28.76L196.02-28.76Q196.71-28.76 197.25-28.32 197.78-27.88 198.2-27.25 198.61-26.61 198.88-25.88 199.15-25.15 199.3-24.61L199.3-24.61Q199.78-25.29 200.44-25.93 201.1-26.56 201.93-27.05 202.76-27.54 203.79-27.83 204.81-28.13 206.13-28.13L206.13-28.13Q208.62-28.13 210.01-26.93 211.41-25.73 212.06-23.95 212.72-22.17 212.87-20.12 213.02-18.07 213.02-16.41L213.02-16.41Q213.02-15.58 212.87-13.94 212.72-12.3 212.41-10.33 212.09-8.35 211.55-6.27 211.02-4.2 210.28-2.49 209.55-0.78 208.55 0.29 207.55 1.37 206.28 1.37ZM223.81-34.08L223.81-34.08Q223.81-33.4 223.44-32.86 223.07-32.32 222.49-31.91 221.9-31.49 221.22-31.27 220.53-31.05 219.95-31.05L219.95-31.05Q218.97-31.05 218.24-31.54 217.51-32.03 217.51-33.06L217.51-33.06Q217.51-33.79 217.87-34.35 218.24-34.91 218.78-35.28 219.31-35.64 220-35.84 220.68-36.04 221.32-36.04L221.32-36.04Q222.24-36.04 223.02-35.6 223.81-35.16 223.81-34.08ZM224.2-17.48L224.2-17.48Q224.2-16.8 224.2-16.04 224.2-15.28 224.15-14.6L224.15-14.6Q224.1-13.77 224.1-12.38 224.1-10.99 224-9.38 223.9-7.76 223.68-6.1 223.46-4.44 222.98-3.08 222.49-1.71 221.68-0.85 220.88 0 219.66 0.05L219.66 0.05Q218.73 0.1 218.09-0.68 217.46-1.46 217.04-2.71 216.63-3.96 216.43-5.49 216.24-7.03 216.14-8.47 216.04-9.91 216.04-11.13 216.04-12.35 216.04-12.94L216.04-12.94Q216.04-13.72 216.04-15.16 216.04-16.6 216.14-18.26 216.24-19.92 216.51-21.63 216.77-23.34 217.29-24.76 217.8-26.17 218.63-27.05 219.46-27.93 220.73-27.93L220.73-27.93Q222.05-27.93 222.73-26.61 223.42-25.29 223.76-23.54 224.1-21.78 224.15-20.04 224.2-18.31 224.2-17.48ZM248.41-6.88L248.41-6.88Q248.41-6.01 248.34-4.59 248.27-3.17 247.92-1.83 247.58-0.49 246.85 0.49 246.12 1.46 244.8 1.46L244.8 1.46Q242.99 1.46 242.02 0.29 241.04-0.88 241.09-2.64L241.09-2.64Q239.53-1.27 237.55-0.49 235.57 0.29 233.52 0.29L233.52 0.29Q232.1 0.29 230.83-0.39 229.56-1.07 228.59-2.15 227.61-3.22 227.03-4.57 226.44-5.91 226.44-7.23L226.44-7.23Q226.44-9.57 227.88-11.33 229.32-13.09 231.42-14.33 233.52-15.58 235.89-16.31 238.26-17.04 240.11-17.29L240.11-17.29Q240.11-17.53 240.14-17.72 240.16-17.92 240.16-18.16L240.16-18.16Q240.16-19.68 239.33-20.61 238.5-21.53 236.99-21.53L236.99-21.53Q235.77-21.53 234.89-21.12 234.01-20.7 233.23-20.19 232.45-19.68 231.66-19.26 230.88-18.85 229.91-18.85L229.91-18.85Q228.83-18.85 228.08-19.53 227.32-20.21 227.32-21.29L227.32-21.29Q227.32-22.9 228.27-24.22 229.22-25.54 230.66-26.44 232.1-27.34 233.79-27.86 235.47-28.37 236.89-28.37L236.89-28.37Q238.21-28.37 239.53-28.05 240.84-27.73 242.02-27.08 243.19-26.42 244.14-25.46 245.09-24.51 245.68-23.24L245.68-23.24Q246.56-21.44 247.09-19.41 247.63-17.38 247.92-15.26 248.22-13.13 248.31-11.01 248.41-8.89 248.41-6.88ZM240.6-8.45L240.6-8.45 240.45-11.77Q240.36-11.77 240.26-11.79 240.16-11.82 240.06-11.82L240.06-11.82Q239.43-11.82 238.48-11.5 237.52-11.18 236.64-10.62 235.77-10.06 235.16-9.38 234.55-8.69 234.55-7.96L234.55-7.96Q234.55-7.28 235.03-7.03 235.52-6.79 236.16-6.79L236.16-6.79Q237.23-6.79 238.45-7.35 239.67-7.91 240.6-8.45ZM271.95-25.2L271.95-25.2Q271.95-24.41 271.65-23.56 271.36-22.71 270.92-21.83 270.48-20.95 269.99-20.14 269.5-19.34 269.11-18.65L269.11-18.65Q268.14-17.09 267.18-15.48 266.23-13.87 265.26-12.3L265.26-12.3Q265.7-11.62 266.48-10.4 267.26-9.18 268.01-7.84 268.77-6.49 269.31-5.18 269.85-3.86 269.85-2.93L269.85-2.93Q269.85-2.05 269.16-1.22 268.48-0.39 267.5-0.39L267.5-0.39Q266.48-0.39 265.43-1.12 264.38-1.86 263.38-2.86 262.37-3.86 261.54-4.96 260.71-6.05 260.13-6.79L260.13-6.79Q259.49-6.1 258.49-4.93 257.49-3.76 256.34-2.64 255.2-1.51 254.07-0.71 252.95 0.1 252.07 0.1L252.07 0.1Q251.05 0.1 250.46-0.63 249.87-1.37 249.87-2.34L249.87-2.34Q249.87-3.32 250.53-4.83 251.19-6.35 252.1-7.96 253-9.57 253.9-11.04 254.81-12.5 255.29-13.33L255.29-13.33Q254.81-14.21 254.07-15.65 253.34-17.09 252.68-18.68 252.02-20.26 251.56-21.8 251.1-23.34 251.1-24.37L251.1-24.37Q251.1-25.49 251.78-26.17 252.46-26.86 253.59-26.86L253.59-26.86Q254.81-26.86 255.88-25.9 256.95-24.95 257.88-23.61 258.81-22.27 259.52-20.83 260.23-19.38 260.67-18.46L260.67-18.46Q261.25-19.34 262.3-20.85 263.35-22.36 264.67-23.83 265.99-25.29 267.4-26.37 268.82-27.44 270.09-27.44L270.09-27.44Q270.92-27.44 271.43-26.73 271.95-26.03 271.95-25.2Z" opacity="1" transform="matrix(1,0,0,1,0,0)" fill="#ae36f5" class="undefined-text-0" data-fill-palette-color="primary" id="text-0"></path></svg></g></svg></g></svg></g></svg></g><g><svg viewBox="0 0 99.72762366538477 99.72762366538477" height="99.72762366538477" width="99.72762366538477"><g><svg></svg></g><g id="icon-0"><svg viewBox="0 0 99.72762366538477 99.72762366538477" height="99.72762366538477" width="99.72762366538477"><g><path d="M0 49.864c0-27.539 22.325-49.864 49.864-49.864 27.539 0 49.864 22.325 49.864 49.864 0 27.539-22.325 49.864-49.864 49.864-27.539 0-49.864-22.325-49.864-49.864zM49.864 94.752c24.791 0 44.888-20.097 44.888-44.888 0-24.791-20.097-44.888-44.888-44.888-24.791 0-44.888 20.097-44.888 44.888 0 24.791 20.097 44.888 44.888 44.888z" data-fill-palette-color="accent" fill="#ae36f5" stroke="transparent"></path><ellipse rx="49.36517371436546" ry="49.36517371436546" cx="49.863811832692384" cy="49.863811832692384" fill="#ae36f5" stroke="transparent" stroke-width="0" fill-opacity="1" data-fill-palette-color="accent"></ellipse></g><g transform="matrix(1,0,0,1,21.953482693448407,27.53066547064183)"><svg viewBox="0 0 55.820658278487954 44.66629272410111" height="44.66629272410111" width="55.820658278487954"><g><svg xmlns="http://www.w3.org/2000/svg" xmlns:xlink="http://www.w3.org/1999/xlink" version="1.1" x="0" y="0" viewBox="23.917776107788086 51.67845153808594 230.99903869628906 184.8396453857422" enable-background="new 0 0 283.5 283.5" xml:space="preserve" height="44.66629272410111" width="55.820658278487954" class="icon-s-0" data-fill-palette-color="quaternary" id="s-0"><g display="none" fill="#ffffff" data-fill-palette-color="quaternary"><g display="inline" fill="#ffffff" data-fill-palette-color="quaternary"><g fill="#ffffff" data-fill-palette-color="quaternary"><g fill="#ffffff" data-fill-palette-color="quaternary"><path fill="#ffffff" d="M220.5 131.6c-52.4 0-104.8 0-157.3 0-13.1 0-13.1 20.3 0 20.3 52.4 0 104.8 0 157.3 0C233.6 152 233.6 131.6 220.5 131.6L220.5 131.6z" data-fill-palette-color="quaternary"></path></g><g fill="#ffffff" data-fill-palette-color="quaternary"><path fill="#ffffff" d="M131.7 63.2c0 52.4 0 104.8 0 157.3 0 13.1 20.3 13.1 20.3 0 0-52.4 0-104.8 0-157.3C152 50.1 131.7 50.1 131.7 63.2L131.7 63.2z" data-fill-palette-color="quaternary"></path></g></g></g></g><g display="none" fill="#ffffff" data-fill-palette-color="quaternary"><g display="inline" fill="#ffffff" data-fill-palette-color="quaternary"><path fill="#ffffff" d="M216.3 55.7v0.2h-15.7l-9.4 9.4H92.7l-9.4-9.4H53.6V219l8.3 9.4H65h153.9 3.2l8.2-9.7v-163L216.3 55.7 216.3 55.7zM192.3 79.3v95H92.1v-95H192.3zM68.2 214.4l-0.6-0.7V69.9h9.9l9.4 9.4h0.6v99.6h109.5V79.3h0l9.4-9.4h10v143.7l-0.7 0.9L68.2 214.4 68.2 214.4z" data-fill-palette-color="quaternary"></path></g></g><g display="none" fill="#ffffff" data-fill-palette-color="quaternary"><g display="inline" fill="#ffffff" data-fill-palette-color="quaternary"><g fill="#ffffff" data-fill-palette-color="quaternary"><path fill="#ffffff" d="M141.7 229.8c-48.7 0-88.2-39.6-88.2-88.2s39.6-88.2 88.2-88.2S230 92.9 230 141.6 190.4 229.8 141.7 229.8zM141.7 66.5c-41.4 0-75.1 33.7-75.1 75.1s33.7 75.1 75.1 75.1 75.1-33.7 75.1-75.1S183.1 66.5 141.7 66.5z" data-fill-palette-color="quaternary"></path></g><g fill="#ffffff" data-fill-palette-color="quaternary"><path fill="#ffffff" d="M141.7 208.1c-36.7 0-66.5-29.8-66.5-66.5s29.8-66.5 66.5-66.5 66.5 29.8 66.5 66.5S178.4 208.1 141.7 208.1zM141.7 76.2c-36.1 0-65.4 29.3-65.4 65.4s29.3 65.4 65.4 65.4 65.4-29.3 65.4-65.4C207.1 105.5 177.8 76.2 141.7 76.2z" data-fill-palette-color="quaternary"></path></g><g fill="#ffffff" data-fill-palette-color="quaternary"><circle fill="#ffffff" cx="141.7" cy="141.6" r="33" data-fill-palette-color="quaternary"></circle></g></g></g><g display="none" fill="#ffffff" data-fill-palette-color="quaternary"><g display="inline" fill="#ffffff" data-fill-palette-color="quaternary"><path fill="#ffffff" d="M223.9 73.5c0-1.6-1-2.8-2.4-3.3-0.5-1.4-1.8-2.4-3.3-2.4-37.9 0-75.7 0-113.6 0-0.8-3.3-1.6-6.6-2.4-9.9-0.3-1.3-1.3-2.1-2.5-2.4-0.6-1.1-1.7-1.9-3.1-1.9-11.4 0-22.7 0-34.1 0-1.9 0-3.6 1.6-3.6 3.6 0 1.4 0 2.9 0 4.3 0 1.9 1.6 3.6 3.6 3.6 9.9 0 19.8 0 29.6 0 6.7 27 13.4 54 20 81-9 2.1-17.9 4.3-26.9 6.4-1.3 0.3-2.1 1.3-2.4 2.5-1.1 0.6-1.9 1.7-1.9 3.1 0 8.1 0 16.2 0 24.3 0 1.5 1 2.8 2.4 3.3 0.5 1.4 1.8 2.4 3.3 2.4 43.8 0 87.7 0 131.6 0 1 0 1.7-0.4 2.3-0.9 0.1-0.1 0.2-0.1 0.2-0.2 0.1-0.1 0.1-0.2 0.2-0.2 0.5-0.6 0.9-1.3 0.9-2.3 0-1.4 0-2.9 0-4.3 0-1.9-1.6-3.6-3.6-3.6-41.9 0-83.9 0-125.9 0 0-4.7 0-9.4 0-14.1 42.4-10.1 84.9-20.3 127.3-30.4 1.2-0.3 2-1.2 2.4-2.4 0.2-0.1 0.4-0.3 0.6-0.5 0.1-0.1 0.2-0.1 0.2-0.2 0.1-0.1 0.1-0.2 0.2-0.2 0.5-0.6 0.9-1.3 0.9-2.3C223.9 108.9 223.9 91.2 223.9 73.5zM212.5 122.1c-29.7 7.1-59.5 14.2-89.2 21.3-5.3-21.4-10.5-42.8-15.8-64.2 35 0 70 0 105 0C212.5 93.6 212.5 107.8 212.5 122.1z" data-fill-palette-color="quaternary"></path><path fill="#ffffff" d="M99.9 200.3c-8.1-0.4-13.9 6.9-14.3 14.3-0.4 8.1 6.9 13.9 14.3 14.3 8.1 0.4 13.9-6.9 14.3-14.3C113.8 206.5 108 200.7 99.9 200.3z" data-fill-palette-color="quaternary"></path><path fill="#ffffff" d="M193.7 200.3c-8.1-0.4-13.9 6.9-14.3 14.3-0.4 8.1 6.9 13.9 14.3 14.3 8.1 0.4 13.9-6.9 14.3-14.3C207.5 206.5 201.7 200.7 193.7 200.3z" data-fill-palette-color="quaternary"></path></g></g><g display="none" fill="#ffffff" data-fill-palette-color="quaternary"><g display="inline" fill="#ffffff" data-fill-palette-color="quaternary"><g fill="#ffffff" data-fill-palette-color="quaternary"><path fill="#ffffff" d="M91.1 140.8c-20.5 0-37.2-16.7-37.2-37.2s16.7-37.2 37.2-37.2 37.2 16.7 37.2 37.2S111.6 140.8 91.1 140.8zM91.1 80.8c-12.6 0-22.8 10.2-22.8 22.8s10.2 22.8 22.8 22.8 22.8-10.2 22.8-22.8S103.7 80.8 91.1 80.8z" data-fill-palette-color="quaternary"></path></g><g fill="#ffffff" data-fill-palette-color="quaternary"><path fill="#ffffff" d="M191.6 215.7c-20.5 0-37.2-16.7-37.2-37.2s16.7-37.2 37.2-37.2 37.2 16.7 37.2 37.2C228.8 199 212.1 215.7 191.6 215.7zM191.6 155.6c-12.6 0-22.8 10.2-22.8 22.8s10.2 22.8 22.8 22.8c12.6 0 22.8-10.2 22.8-22.8S204.2 155.6 191.6 155.6z" data-fill-palette-color="quaternary"></path></g><g fill="#ffffff" data-fill-palette-color="quaternary"><polygon fill="#ffffff" points="103.6,215.2 82,215.2 175.4,78.3 196.9,78.3    " data-fill-palette-color="quaternary"></polygon></g></g></g><g display="none" fill="#ffffff" data-fill-palette-color="quaternary"><g display="inline" fill="#ffffff" data-fill-palette-color="quaternary"><g fill="#ffffff" data-fill-palette-color="quaternary"><path fill="#ffffff" d="M209.1 227.9H73c-10.4 0-18.8-8.4-18.8-18.8V73c0-10.4 8.4-18.8 18.8-18.8h136.1c10.4 0 18.8 8.4 18.8 18.8v136.1C227.9 219.5 219.5 227.9 209.1 227.9zM75.4 206.7h131.3V75.4H75.4C75.4 75.4 75.4 206.7 75.4 206.7z" data-fill-palette-color="quaternary"></path></g><g fill="#ffffff" data-fill-palette-color="quaternary"><rect x="92.2" y="91.2" fill="#ffffff" width="99.4" height="12.7" data-fill-palette-color="quaternary"></rect></g><g fill="#ffffff" data-fill-palette-color="quaternary"><rect x="92.2" y="119.8" fill="#ffffff" width="99.4" height="12.7" data-fill-palette-color="quaternary"></rect></g><g fill="#ffffff" data-fill-palette-color="quaternary"><rect x="92.2" y="148.4" fill="#ffffff" width="48.9" height="12.7" data-fill-palette-color="quaternary"></rect></g></g></g><g display="none" fill="#ffffff" data-fill-palette-color="quaternary"><g display="inline" fill="#ffffff" data-fill-palette-color="quaternary"><path fill="#ffffff" d="M133.7 198.3c-25.7 0-46.7-21.9-47.4-49l18.6 9.5-3.1-64-13.6 10.6-0.5-0.4c-0.6 0.7-1.2 1.4-1.7 2.1l-32.8 25.6 19.1 9.7c-0.2 1.9-0.2 3.7-0.2 5.6 0 35.6 27.6 64.5 61.5 64.5 4.9 0 9.8-0.6 14.6-1.8l-3.5-13.7C141.1 197.8 137.4 198.3 133.7 198.3z" data-fill-palette-color="quaternary"></path><path fill="#ffffff" d="M208.1 147c0.8-4.1 1.2-8.3 1.2-12.6 0-35.5-27.6-64.4-61.5-64.4-6 0-12 0.9-17.7 2.7l4.2 13.5c4.3-1.4 8.9-2.1 13.4-2.1 26.1 0 47.4 22.6 47.4 50.3 0 1.7-0.1 3.4-0.2 5.1l-19.8-11.2 1.4 66.7 51.9-36.6L208.1 147z" data-fill-palette-color="quaternary"></path></g></g><g display="none" fill="#ffffff" data-fill-palette-color="quaternary"><path display="inline" fill="#ffffff" d="M224.7 212.7c-13.1-13.1-26.3-26.3-39.4-39.4 22.2-28.4 20.3-69.6-5.8-95.7-28.2-28.2-74.1-28.2-102.3 0s-28.2 74.1 0 102.3c26.1 26.1 67.3 28 95.7 5.8 13.1 13.1 26.3 26.3 39.4 39.4C217.8 230.5 230.2 218.1 224.7 212.7zM87.1 170c-22.7-22.7-22.7-59.7 0-82.5s59.7-22.7 82.5 0 22.7 59.7 0 82.5S109.9 192.7 87.1 170z" data-fill-palette-color="quaternary"></path></g><g display="none" fill="#ffffff" data-fill-palette-color="quaternary"><g display="inline" fill="#ffffff" data-fill-palette-color="quaternary"><g fill="#ffffff" data-fill-palette-color="quaternary"><path fill="#ffffff" d="M189 227.2H92.8c-9.1 0-16.4-7.4-16.4-16.5v-96.1c0-9.1 7.4-16.5 16.4-16.5H189c9.1 0 16.4 7.4 16.4 16.5v96.2C205.4 219.8 198 227.2 189 227.2zM92.8 111.5c-1.7 0-3.1 1.4-3.1 3.1v96.2c0 1.7 1.4 3.1 3.1 3.1H189c1.7 0 3.1-1.4 3.1-3.1v-96.2c0-1.7-1.4-3.1-3.1-3.1L92.8 111.5 92.8 111.5z" data-fill-palette-color="quaternary"></path></g><g fill="#ffffff" data-fill-palette-color="quaternary"><path fill="#ffffff" d="M140.9 187.6c-13.7 0-24.9-11.2-24.9-24.9 0-13.7 11.2-24.9 24.9-24.9s24.9 11.2 24.9 24.9C165.8 176.4 154.6 187.6 140.9 187.6zM140.9 146.7c-8.8 0-16 7.2-16 16s7.2 16 16 16c8.8 0 16-7.2 16-16S149.7 146.7 140.9 146.7z" data-fill-palette-color="quaternary"></path></g><g fill="#ffffff" data-fill-palette-color="quaternary"><rect x="104.3" y="82.6" fill="#ffffff" width="13.3" height="22.2" data-fill-palette-color="quaternary"></rect></g><g fill="#ffffff" data-fill-palette-color="quaternary"><path fill="#ffffff" d="M163.1 84.3h-13.3c0-8.9-7.2-16.1-16.1-16.1s-16.1 7.2-16.1 16.1h-13.3c0-16.2 13.2-29.4 29.4-29.4S163.1 68.1 163.1 84.3z" data-fill-palette-color="quaternary"></path></g></g></g><g display="none" fill="#ffffff" data-fill-palette-color="quaternary"><polygon display="inline" fill="#ffffff" points="203.7,140.9 203.7,140.9 78.5,225.5 78.5,56.3  " data-fill-palette-color="quaternary"></polygon></g><g display="none" fill="#ffffff" data-fill-palette-color="quaternary"><polygon display="inline" fill="#ffffff" points="79.1,141.6 79.1,141.6 204.4,56.9 204.4,226.2  " data-fill-palette-color="quaternary"></polygon></g><g display="none" fill="#ffffff" data-fill-palette-color="quaternary"><polygon display="inline" fill="#ffffff" points="141.8,204.3 141.8,204.3 57.1,79.1 226.4,79.1  " data-fill-palette-color="quaternary"></polygon></g><g display="none" fill="#ffffff" data-fill-palette-color="quaternary"><polygon display="inline" fill="#ffffff" points="141.8,79.1 141.8,79.1 226.4,204.3 57.1,204.3  " data-fill-palette-color="quaternary"></polygon></g><g display="none" fill="#ffffff" data-fill-palette-color="quaternary"><path display="inline" fill="#ffffff" d="M213 75.1H70.5c-8.1 0-14.7 6.6-14.7 14.7v103.4c0 8.1 6.6 14.7 14.7 14.7H213c8.1 0 14.7-6.6 14.7-14.7V89.8C227.7 81.7 221.1 75.1 213 75.1zM141.8 140.8c-23.8-18.5-47.6-37-71.4-55.5 0 0 0.1 0 0.1 0H213c0 0 0.1 0 0.1 0C189.4 103.8 165.6 122.3 141.8 140.8zM217.6 193.2c0 2.5-2 4.5-4.5 4.5H70.5c-2.5 0-4.5-2-4.5-4.5V89.8c0-0.8 0.2-1.5 0.6-2.1 24.6 19.1 49.1 38.2 73.7 57.2 0.4 0.3 0.8 0.4 1.2 0.4 0.1 0 0.2 0 0.2 0 0.1 0 0.2 0 0.2 0 0.4 0 0.8-0.1 1.2-0.4 24.6-19.1 49.1-38.2 73.7-57.2 0.4 0.6 0.6 1.4 0.6 2.1V193.2L217.6 193.2z" data-fill-palette-color="quaternary"></path></g><g display="none" fill="#ffffff" data-fill-palette-color="quaternary"><g display="inline" fill="#ffffff" data-fill-palette-color="quaternary"><path fill="#ffffff" d="M53.3 53v177.2h177.2V53L53.3 53 53.3 53zM192.2 203.6c0-6.9 5.6-12.5 12.5-12.5 5.3 0 9.9 3.3 11.7 8v9c-1.8 4.7-6.4 8-11.7 8C197.9 216.1 192.2 210.5 192.2 203.6zM204.8 181.7c-12.1 0-21.9 9.8-21.9 21.9 0 4.7 1.5 9 4 12.6H97c2.5-3.5 3.9-7.8 3.9-12.5 0-12.1-9.8-21.9-21.9-21.9-4.3 0-8.3 1.3-11.7 3.4V97.4c3.5 2.4 7.8 3.9 12.4 3.9 12 0 21.9-9.8 21.9-21.9 0-4.6-1.4-8.9-3.9-12.4h87.4c-2.4 3.5-3.8 7.8-3.8 12.3 0 12 9.8 21.9 21.9 21.9 5 0 9.6-1.7 13.3-4.5v88.5C213.1 183 209.1 181.7 204.8 181.7zM77.8 216.2c-4.8-0.5-8.8-3.7-10.5-8v-9c1.8-4.7 6.4-8 11.7-8 6.9 0 12.5 5.6 12.5 12.5 0 6.5-5 11.8-11.3 12.5H77.8zM92.3 79.3c0 6.9-5.6 12.5-12.5 12.5-6.3 0-11.5-4.7-12.4-10.8v-3.6c0.8-5.4 5-9.8 10.5-10.6h3.9C87.7 67.9 92.3 73.1 92.3 79.3zM205.5 67c5.8 1.1 10.2 6.2 10.2 12.3 0 6.9-5.6 12.5-12.5 12.5-6.9 0-12.5-5.6-12.5-12.5 0-6.1 4.4-11.2 10.2-12.3C200.8 67 205.5 67 205.5 67z" data-fill-palette-color="quaternary"></path><path fill="#ffffff" d="M141.9 104.8c-20.3 0-36.8 16.5-36.8 36.8s16.5 36.8 36.8 36.8 36.8-16.5 36.8-36.8S162.2 104.8 141.9 104.8zM141.9 169c-15.1 0-27.4-12.3-27.4-27.4s12.3-27.4 27.4-27.4 27.4 12.3 27.4 27.4S157 169 141.9 169z" data-fill-palette-color="quaternary"></path><circle fill="#ffffff" cx="141.9" cy="141.6" r="16" data-fill-palette-color="quaternary"></circle></g></g><g display="none" fill="#ffffff" data-fill-palette-color="quaternary"><g display="inline" fill="#ffffff" data-fill-palette-color="quaternary"><path fill="#ffffff" d="M149.4 229.4c-1.6-10.9-2-21.7-2.4-32.1 0-1.1 0-2.2 0-3.3 0-1.5 0-2.8 0.1-4 0-1.3 0.2-2.6 0.3-3.8 0 0 0-0.1 0-0.2l0.2-4.4c0.4-7.1 0.7-14.7 0.1-22 0.1-1.3 0.1-2.6 0.1-4 0-7-0.6-14-1.2-20.8-0.7-7.6-1.4-15.5-1.2-23.1 0.4-4.1-0.4-8.7-2.4-13.2-0.3-0.8-0.6-1.6-1-2.5l-0.4-1c0 0 0 0 0-0.1-0.1-0.3-0.3-0.6-0.4-0.9-1.3-2.9-2.3-5.5-1.8-8.1 0.7-2.9 2.1-5.5 3.5-8.4 2.6-5.1 5.3-10.4 4.1-16.8-0.3-1.4-1.6-2.3-3.1-2.1-1.4 0.3-2.3 1.6-2.1 3.1 0.9 4.7-1.2 8.7-3.6 13.4-1.5 3-3.1 6.1-4 9.5 0 0 0 0 0 0.1-1 4.3 0.7 8 2.1 11.4 0.1 0.3 0.2 0.6 0.4 0.9l0.4 1c0.3 0.8 0.6 1.7 1 2.5 0 0 0 0.1 0.1 0.2 1.7 3.7 2.4 7.5 2 10.7 0 0.1 0 0.2 0 0.2-0.2 8 0.5 16.1 1.2 23.8 0.6 6.7 1.2 13.6 1.2 20.3 0 1.4 0 2.7-0.1 4 0 0.1 0 0.2 0 0.4 0.6 7.1 0.3 14.2-0.1 21.5l-0.2 4.3c-0.1 1.3-0.2 2.7-0.3 4.1-0.1 1.3-0.1 2.7-0.1 4.3 0 1.1 0 2.2 0 3.4 0.4 10.5 0.8 21.3 2.4 32.4h5.2C149.4 229.6 149.4 229.5 149.4 229.4z" data-fill-palette-color="quaternary"></path></g></g><g display="none" fill="#ffffff" data-fill-palette-color="quaternary"><g display="inline" fill="#ffffff" data-fill-palette-color="quaternary"><path fill="#ffffff" d="M144.7 229.4c0-2.5-0.1-5-0.1-7.7 0-7 0-14.3-1-21.4-0.1-1.3-0.2-2.6-0.4-3.8l0-0.3c-0.5-5.3-1.1-10.9-1.2-16.3 0-1.3 0.1-2.6 0.2-4.2 0.3-4.6 0.7-9.2 1.1-13.7 0.4-4.1 0.8-8.4 1.1-12.7 0 0 0-0.1 0-0.1 0-1 0.1-2 0.1-3 0-1 0-2 0-3 0-1.5 0.1-2.9 0.1-4.4 0.1-4.5 0.2-8.9 0.1-13.2 0-1.3 0-2.6 0-3.9 0-4.2 0-8.3 0-11.7 0-1.4 0.1-2.7 0.1-3.9 0.1-2.8 0.3-5.4 0.6-7.8 0 0 0-0.1 0-0.1 0.1-1.6 0.3-3.1 0.5-4.5 0 0 0-0.1 0-0.1 0.1-1.4 0.3-2.8 0.4-4.1 0.6-6.8 0.8-14.1-1.3-21.3-0.4-1.3-0.8-2.6-1.4-3.9-0.5-1.3-1.1-2.6-1.7-3.9-0.7-1.3-2.3-1.9-3.6-1.2-1.3 0.7-1.9 2.3-1.2 3.6 0.6 1.1 1.1 2.3 1.5 3.4 0.4 1.2 0.9 2.3 1.2 3.5 1.9 6.4 1.6 13 1.1 19.4-0.1 1.4-0.2 2.7-0.4 4-0.2 1.5-0.4 3-0.5 4.7-0.3 2.6-0.5 5.2-0.6 8.2-0.1 1.3-0.1 2.7-0.1 4.1 0 0 0 0 0 0.1 0 3.4 0 7.5 0 11.7 0 1.3 0 2.6 0 3.9 0 4.3 0 8.7-0.1 13.1 0 1.5-0.1 2.9-0.1 4.4 0 0 0 0 0 0.1 0 0.9 0 1.9 0 2.9 0 1 0 1.9-0.1 2.9-0.3 4.2-0.7 8.4-1 12.5-0.4 4.5-0.8 9.2-1.2 13.8-0.1 1.7-0.2 3.1-0.2 4.5 0 0 0 0.1 0 0.1 0.1 5.7 0.7 11.6 1.2 16.9l0 0.3c0.1 1.3 0.3 2.6 0.4 3.9 0 0 0 0.1 0 0.1 0.9 6.8 0.9 13.9 0.9 20.8 0 2.6 0 5.2 0.1 7.8 0 0.2 0 0.3 0 0.4h5.3C144.6 229.8 144.7 229.6 144.7 229.4z" data-fill-palette-color="quaternary"></path></g></g><g display="none" fill="#ffffff" data-fill-palette-color="quaternary"><path display="inline" fill="#ffffff" d="M127.6 222.8c-0.6 0-1.2-0.1-1.8-0.3-2.5-0.8-4.1-3.4-3.8-6.1l8.9-64h-28.2c-1.6 0-3.1-0.7-4.2-1.9-1.1-1.2-1.6-2.8-1.4-4.3l8.8-81c0.3-2.8 2.7-5 5.6-5h55.5c1.8 0 3.5 0.9 4.6 2.4 1 1.5 1.3 3.4 0.7 5.1l-15.9 44.7 4.8-0.2 20.2-1.2c2-0.1 3.9 0.9 5 2.5 1.1 1.7 1.2 3.9 0.3 5.6l-27.1 51.7-27.1 49C131.5 221.7 129.6 222.8 127.6 222.8zM109 141.2h28.4c1.6 0 3.2 0.7 4.2 1.9s1.6 2.8 1.3 4.5l-5.6 40.5 12.5-22.5 22.4-42.8-10.4 0.6-13.2 0.6c-1.9 0.1-3.7-0.8-4.8-2.3-1.1-1.5-1.4-3.5-0.8-5.2l16.1-45.1h-42.5L109 141.2z" data-fill-palette-color="quaternary"></path></g><g fill="#ffffff" data-fill-palette-color="quaternary"><path fill="#ffffff" d="M115.6 58.5l-21.9 9.4c-10.4 4.5-21.4 7.4-32.7 8.9l-21.9 2.8c-10.3 1.3-17.3 11.4-14.6 21.4l14.7 53.8c7.6 27.6 26.5 50.9 51.8 64.4l20.1 10.6c6.8 3.6 15.3 1.4 19.3-5.2l11.2-18.1c15.2-24.5 19.5-54.3 11.9-82.2l-15-54.7C135.7 59.7 125 54.4 115.6 58.5zM56.2 128c5-4.5 12.3-6.5 19.6-2.3 3.7 2.1 8.8 3.8 9.7 10.2 0.6 2.1-0.7 4.3-2.8 4.8-5.8 0.2-10.4 6.2-16.6 6.3C55.6 148.4 47.7 136.6 56.2 128zM74.9 182.8l0.1 0c22.8 4.5 45.6-5.7 64-17.5C132 196.6 98.3 202.2 74.9 182.8zM128.4 130.1c-5.4 3-12.4 0.3-17.5 3-2.1 0.6-4.3-0.7-4.9-2.8-2.5-5.9 1-10 3.1-13.7 4.2-7.4 11.5-9.4 18-8C138.9 111.6 138.1 125.8 128.4 130.1z" data-fill-palette-color="quaternary"></path></g><g fill="#ffffff" data-fill-palette-color="quaternary"><path fill="none" d="M187.9 138c1.2-6.3 6.4-7.8 10.2-9.7 7.6-3.8 14.7-1.4 19.5 3.3 8.1 9-0.5 20.4-10.9 18.5-6.2-0.5-10.5-6.6-16.3-7.2C188.4 142.3 187.2 140.1 187.9 138z"></path><path fill="#ffffff" d="M239.8 79.2c-1-0.3-2-0.6-3-0.8l-23.5-4.4c-10.6-2-21.1-5.5-30.8-10.3L163.1 54c-1-0.5-1.9-0.9-2.9-1.2-7.6-2.5-15.6-0.7-21.3 4.2 3.1 1.6 5.6 4.2 7.2 7.4 3-2.3 7-3.1 10.8-1.8 0.5 0.2 1.1 0.4 1.6 0.7l19.4 9.7c10.6 5.3 22 9.1 33.5 11.2l23.5 4.4c0.5 0.1 1.1 0.2 1.6 0.4 6.2 2 9.5 8.7 7.4 14.9l-17.9 53.8c-8.6 26-27.8 47.4-52.7 58.7l-19.5 8.9c-2.2 1-4.6 1.1-6.8 0.4-2.3-0.8-4.2-2.3-5.3-4.5l-0.8-1.5-1.8 2.9c-1.4 2.3-3.4 4-5.6 5.2 2.4 3.6 6 6.3 10.2 7.7 4.7 1.6 9.9 1.3 14.4-0.8l19.5-8.9c27.5-12.5 48.8-36.2 58.3-64.9l17.9-53.8C257.6 95.6 251.4 83 239.8 79.2z" data-fill-palette-color="quaternary"></path><path fill="#ffffff" d="M167.8 131.3c2.8-5.8-0.5-10-2.4-13.8-1.6-3.3-3.9-5.5-6.4-7l3.2 11.9c1 3.8 1.9 7.7 2.5 11.6C166.1 133.7 167.3 132.7 167.8 131.3z" data-fill-palette-color="quaternary"></path><path fill="#ffffff" d="M190.4 143c5.8 0.6 10.1 6.7 16.3 7.2 10.5 1.9 19-9.5 10.9-18.5-4.8-4.7-11.9-7.1-19.5-3.3-3.8 1.9-9 3.3-10.2 9.7C187.2 140.1 188.4 142.3 190.4 143z" data-fill-palette-color="quaternary"></path><path fill="#ffffff" d="M188.5 194.7c-4.4-8.6-13.1-16.9-25.7-19.9-0.4 1.8-0.9 3.6-1.5 5.3 10 2.6 19.5 7.1 27 14.6L188.5 194.7z" data-fill-palette-color="quaternary"></path></g></svg></g></svg></g></svg></g></svg></g></svg></g><defs></defs></svg><rect width="395.52" height="75.6653665154911" fill="none" stroke="none" visibility="hidden"></rect></g></svg></g></svg>